<?xml version="1.0" encoding="utf-8"?>
<!-- Generator: Adobe Illustrator 25.2.0, SVG Export Plug-In . SVG Version: 6.00 Build 0)  -->
<svg version="1.1" id="Layer_1" xmlns="http://www.w3.org/2000/svg" xmlns:xlink="http://www.w3.org/1999/xlink" x="0px" y="0px"
	 viewBox="0 0 504 360" style="enable-background:new 0 0 504 360;" xml:space="preserve">
<style type="text/css">
	.st0{fill:#939598;}
	.st1{fill:#424143;}
	.st2{fill:#A8AAAD;}
	.st3{fill:#010101;}
</style>
<g>
	<path class="st0" d="M406.26,212.46h-2.55v-1.31h6.59v1.31h-2.55v7.13h-1.48V212.46z"/>
	<path class="st0" d="M411.27,211.15h2.32l2.17,6h0.03l2.14-6h2.33v8.44h-1.47v-6.78h-0.02l-2.53,6.78h-1.04l-2.5-6.78h-0.02v6.78
		h-1.41V211.15z"/>
</g>
<path class="st1" d="M165,134.94c0.66,8.16,0.07,15.83-1.78,23.03c-1.85,7.2-4.88,13.65-9.1,19.36
	c-4.22,5.71-9.88,10.41-16.99,14.11c-7.11,3.69-15.31,5.95-24.6,6.76c-9.29,0.81-17.75,0.05-25.38-2.3
	c-7.63-2.35-14.01-5.97-19.12-10.87c-5.12-4.89-9.22-10.72-12.3-17.49c-3.08-6.76-4.95-14.22-5.62-22.38
	c-0.57-6.43-0.33-12.62,0.71-18.57c1.04-5.95,2.96-11.49,5.76-16.62c2.79-5.13,6.28-9.67,10.45-13.6c4.17-3.93,9.29-7.17,15.36-9.72
	c6.06-2.54,12.8-4.1,20.19-4.68c9.1-0.86,17.46-0.09,25.1,2.3c7.63,2.4,14.03,6.04,19.2,10.94c5.17,4.89,9.31,10.72,12.44,17.49
	C162.45,119.47,164.34,126.88,165,134.94z M112.4,196.54c7.3-0.67,13.72-2.76,19.27-6.26c5.55-3.5,9.9-8.01,13.08-13.53
	c3.18-5.52,5.45-11.73,6.83-18.64c1.37-6.91,1.71-14.22,0.99-21.95c-0.71-7.72-2.32-14.87-4.83-21.45
	c-2.51-6.57-5.83-12.28-9.95-17.13c-4.12-4.84-9.22-8.51-15.28-11.01c-6.07-2.49-12.7-3.4-19.91-2.73
	c-9.48,0.86-17.47,4.17-23.96,9.93c-6.49,5.76-11.04,12.98-13.65,21.66c-2.61,8.69-3.44,18.26-2.49,28.71
	c0.66,7.77,2.25,14.95,4.76,21.52c2.51,6.57,5.83,12.28,9.95,17.13c4.12,4.84,9.22,8.49,15.28,10.94
	C98.56,196.18,105.19,197.12,112.4,196.54z"/>
<path class="st1" d="M182.64,90.61c0-2.11-0.31-3.91-0.92-5.4c-0.62-1.49-1.21-2.47-1.78-2.95l-0.85-0.58h13.22l73.79,98.31V81.68
	h5.26c-0.19,0.1-0.4,0.27-0.64,0.5c-0.24,0.24-0.48,0.5-0.71,0.79c-0.24,0.29-0.5,0.67-0.78,1.15c-0.28,0.48-0.52,1.01-0.71,1.58
	c-0.19,0.58-0.36,1.3-0.5,2.16c-0.14,0.86-0.21,1.78-0.21,2.73v107.95h-1.71L184.49,89.02v109.53h-1.85V90.61z"/>
<path class="st1" d="M329.46,198.56h-10.81v-32.82l-42.8-75.13c-1.23-2.11-2.73-3.91-4.48-5.4c-1.76-1.49-3.2-2.47-4.34-2.95
	l-1.71-0.58h17.77l45.22,79.16l45.22-79.16h2.13l-46.21,80.89V198.56z"/>
<path class="st1" d="M461.14,198.56h-13.37l-38.82-54.55l-45.78,54.55h-2.42l47.06-56.13l-37.11-51.82
	c-1.04-1.25-2.11-2.42-3.2-3.53c-1.09-1.1-2.01-1.97-2.77-2.59c-0.76-0.62-1.45-1.17-2.06-1.66c-0.62-0.48-1.12-0.81-1.49-1.01
	l-0.43-0.14h16.92l37.25,52.25l43.79-52.25h2.42l-45.07,53.83L461.14,198.56z"/>
<g>
	<path class="st1" d="M147.28,231.16c-0.66,0.22-1.13,0.56-1.43,1.02c-0.23,0.37-0.36,0.93-0.39,1.7c-0.03,0.77-0.05,1.53-0.05,2.3
		v7.29c-0.23,0.2-0.8,0.53-1.7,1c-0.9,0.47-2.01,0.94-3.31,1.42c-1.3,0.49-2.74,0.89-4.32,1.22c-1.58,0.33-3.16,0.5-4.74,0.5
		c-3.13,0-5.92-0.41-8.39-1.22c-2.47-0.82-4.55-2.02-6.24-3.6c-1.69-1.58-2.99-3.51-3.9-5.8c-0.91-2.28-1.36-4.84-1.36-7.67
		c0-0.83,0.08-1.79,0.25-2.87c0.17-1.08,0.45-2.22,0.87-3.42c0.41-1.2,0.99-2.41,1.73-3.65c0.74-1.23,1.67-2.4,2.79-3.5
		c1.58-1.57,3.52-2.82,5.83-3.77c2.3-0.95,5.1-1.42,8.39-1.42c1.98,0,3.72,0.18,5.23,0.52c1.52,0.35,2.79,0.73,3.82,1.15
		c1.04,0.42,1.84,0.8,2.39,1.15c0.56,0.35,0.87,0.52,0.94,0.52c0.07,0,0.25-0.2,0.54-0.6c0.3-0.4,0.66-0.88,1.09-1.45h0.44v10.89
		h-0.59c-0.36-1.5-0.91-2.91-1.63-4.25c-0.72-1.33-1.5-2.43-2.32-3.3c-1.05-1.13-2.4-2.05-4.05-2.75c-1.64-0.7-3.49-1.05-5.53-1.05
		c-2.17,0-4.13,0.49-5.87,1.47c-1.74,0.98-3.23,2.3-4.44,3.95c-1.22,1.65-2.16,3.55-2.82,5.69c-0.66,2.15-0.99,4.41-0.99,6.77
		c0,2.6,0.31,4.97,0.94,7.12c0.62,2.15,1.53,3.99,2.71,5.52s2.63,2.72,4.34,3.57c1.71,0.85,3.67,1.27,5.87,1.27
		c1.58,0,3.05-0.28,4.42-0.82c1.36-0.55,2.44-1.44,3.23-2.67c0.26-0.43,0.46-1.2,0.59-2.3c0.13-1.1,0.2-2.23,0.2-3.4
		c0-1.16-0.06-2.21-0.17-3.15s-0.45-1.7-1.01-2.3c-0.76-0.87-2.09-1.38-4-1.55v-0.5h14.46v0.5
		C148.54,230.8,147.93,230.94,147.28,231.16z"/>
	<path class="st1" d="M204.67,247.37c-0.3-0.3-0.51-0.53-0.64-0.67c-0.13-0.15-0.28-0.33-0.44-0.53c-0.16-0.2-0.37-0.49-0.62-0.87
		c-0.25-0.38-0.63-0.96-1.16-1.72c-0.62-0.93-1.17-1.77-1.65-2.52c-0.48-0.75-0.96-1.49-1.46-2.22c-0.49-0.73-1.03-1.47-1.6-2.22
		c-0.58-0.75-1.26-1.59-2.05-2.52c-0.66-0.77-1.37-1.48-2.15-2.15c-0.77-0.67-1.59-1.08-2.44-1.25c-0.63-0.13-1.1-0.2-1.43-0.2
		c-0.3,0-0.67-0.02-1.13-0.05c0,2.17,0,4.05,0,5.64c0,1.6,0.02,2.95,0.05,4.05c0.03,1.07,0.06,1.98,0.1,2.75
		c0.03,0.77,0.21,1.4,0.54,1.9c0.26,0.43,0.77,0.88,1.53,1.33c0.76,0.45,1.81,0.71,3.16,0.77v0.5h-15.79v-0.5
		c0.82-0.13,1.61-0.33,2.37-0.6c0.76-0.26,1.35-0.67,1.78-1.2c0.17-0.2,0.3-0.5,0.39-0.9c0.1-0.4,0.17-0.85,0.22-1.35
		c0.05-0.5,0.09-1.03,0.12-1.6c0.03-0.57,0.05-1.12,0.05-1.65c0-0.46,0.01-1.1,0.02-1.9c0.02-0.8,0.03-1.67,0.05-2.62
		c0.02-0.95,0.03-1.93,0.03-2.92c0-1.03,0-2,0-2.9v-9.74c0-0.6-0.01-1.21-0.03-1.82c-0.02-0.62-0.05-1.2-0.1-1.75
		c-0.05-0.55-0.13-1.05-0.25-1.5c-0.12-0.45-0.27-0.77-0.47-0.97c-0.5-0.53-1.05-0.89-1.65-1.07c-0.61-0.18-1.36-0.34-2.25-0.48
		v-0.5c0.26,0,0.94,0,2.02,0c1.12,0,2.38-0.01,3.8-0.02c1.41-0.02,2.83-0.02,4.25-0.02c1.41,0,2.56,0,3.45,0
		c2.2,0,4.16,0.07,5.87,0.2c1.71,0.13,3.27,0.58,4.69,1.35c1.45,0.77,2.62,1.81,3.51,3.12c0.89,1.32,1.33,2.97,1.33,4.97
		c0,1.23-0.22,2.34-0.67,3.32c-0.44,0.98-1.04,1.85-1.78,2.6c-0.74,0.75-1.61,1.39-2.59,1.93c-0.99,0.53-2.02,0.98-3.11,1.35v0.15
		c0.56,0.3,1.1,0.73,1.63,1.3c0.52,0.57,1.04,1.2,1.53,1.9c0.85,1.26,1.78,2.63,2.79,4.1c1,1.47,1.9,2.76,2.69,3.9
		c1.22,1.73,2.4,3,3.55,3.8c1.15,0.8,2.5,1.32,4.05,1.55v0.5H204.67z M199.79,216.25c-0.82-1.3-2.02-2.33-3.6-3.1
		c-0.79-0.37-1.62-0.63-2.49-0.8c-0.87-0.16-1.78-0.25-2.74-0.25c-0.69,0-1.25,0.02-1.68,0.05c-0.43,0.04-0.76,0.07-0.99,0.1
		c-0.03,0.2-0.07,0.37-0.1,0.53c-0.03,0.15-0.06,0.34-0.07,0.57c-0.02,0.23-0.03,0.56-0.05,0.97c-0.02,0.42-0.04,1.01-0.07,1.77
		c-0.03,1.16-0.06,2.48-0.07,3.95c-0.02,1.46-0.03,2.88-0.03,4.25c0,1.36,0,2.56,0,3.6c0,1,0,1.63,0,1.9c1.35,0,2.61-0.06,3.78-0.18
		c1.17-0.12,2.29-0.36,3.38-0.73c1.05-0.33,1.96-0.78,2.71-1.35s1.37-1.21,1.85-1.92c0.48-0.72,0.83-1.49,1.06-2.32
		c0.23-0.83,0.35-1.7,0.35-2.6C201.02,219.03,200.61,217.54,199.79,216.25z"/>
	<path class="st1" d="M274.7,236.53c-0.99,2.26-2.33,4.23-4.02,5.9c-1.69,1.66-3.67,2.95-5.92,3.84c-2.26,0.9-4.65,1.35-7.18,1.35
		c-2.5,0-4.87-0.44-7.11-1.32c-2.24-0.88-4.2-2.13-5.87-3.75c-1.68-1.62-3-3.55-3.97-5.79c-0.97-2.25-1.46-4.72-1.46-7.42
		c0-2.86,0.51-5.44,1.53-7.72c1.02-2.28,2.39-4.21,4.12-5.79c1.73-1.58,3.75-2.8,6.07-3.65c2.32-0.85,4.76-1.27,7.33-1.27
		c2.8,0,5.31,0.5,7.53,1.5c2.22,1,4.1,2.34,5.65,4.02c1.54,1.68,2.73,3.62,3.55,5.82c0.82,2.2,1.23,4.5,1.23,6.89
		C276.18,231.8,275.69,234.26,274.7,236.53z M269.3,223.04c-0.51-2.06-1.28-3.94-2.32-5.62c-1.04-1.68-2.33-3.05-3.87-4.1
		c-1.55-1.05-3.37-1.57-5.48-1.57c-2.14,0-3.99,0.52-5.55,1.57c-1.56,1.05-2.85,2.41-3.85,4.07c-1,1.66-1.74,3.55-2.22,5.67
		c-0.48,2.11-0.72,4.25-0.72,6.42c0,2.26,0.26,4.45,0.79,6.54c0.53,2.1,1.31,3.95,2.35,5.55c1.04,1.6,2.33,2.88,3.9,3.84
		c1.56,0.97,3.38,1.45,5.45,1.45c2.07,0,3.87-0.53,5.4-1.6c1.53-1.07,2.8-2.44,3.82-4.12c1.02-1.68,1.78-3.57,2.29-5.67
		c0.51-2.1,0.76-4.2,0.76-6.3C270.06,227.15,269.81,225.1,269.3,223.04z"/>
	<path class="st1" d="M340.07,212.85c-0.71,0.47-1.26,1.18-1.65,2.15c-0.1,0.23-0.19,0.62-0.27,1.15c-0.08,0.53-0.16,1.15-0.22,1.85
		c-0.07,0.7-0.12,1.44-0.15,2.22c-0.03,0.78-0.05,1.56-0.05,2.32c-0.03,1.43-0.07,3.03-0.13,4.8c-0.05,1.77-0.11,3.76-0.17,5.99
		c-0.03,0.63-0.07,1.43-0.13,2.4c-0.05,0.97-0.21,1.99-0.47,3.07c-0.26,1.08-0.68,2.17-1.26,3.25c-0.58,1.08-1.39,2.07-2.44,2.95
		c-1.05,0.88-2.4,1.58-4.05,2.1c-1.65,0.51-3.67,0.77-6.07,0.77c-2.37,0-4.37-0.25-6-0.75c-1.63-0.5-2.97-1.17-4.02-2.02
		c-1.05-0.85-1.87-1.78-2.44-2.8c-0.58-1.01-1-2.01-1.28-3c-0.28-0.98-0.44-1.88-0.49-2.7c-0.05-0.82-0.07-1.42-0.07-1.82
		c0-0.93,0.01-2.15,0.02-3.65c0.02-1.5,0.02-3.16,0.02-5v-6.64c0-0.6,0-1.2,0-1.8c0-0.6-0.02-1.16-0.07-1.67
		c-0.05-0.51-0.12-0.98-0.22-1.4c-0.1-0.42-0.25-0.74-0.44-0.97c-0.46-0.57-1.03-0.97-1.7-1.22s-1.44-0.42-2.29-0.53v-0.5h14.71v0.5
		c-0.46,0.07-0.95,0.17-1.48,0.3c-0.52,0.13-1,0.34-1.43,0.62c-0.43,0.28-0.79,0.67-1.09,1.18c-0.3,0.5-0.46,1.13-0.49,1.9
		c-0.03,0.87-0.06,1.63-0.07,2.3c-0.02,0.67-0.02,1.32-0.02,1.95s0,1.3,0,2c0,0.67,0,1.45,0,2.35c0,1.13,0,2.15,0,3.05
		c0,0.9,0,1.75,0,2.55c0,0.77,0.01,1.51,0.02,2.22c0.02,0.71,0.02,1.47,0.02,2.27c0.03,1.76,0.3,3.37,0.79,4.82
		c0.49,1.45,1.19,2.68,2.07,3.7c0.89,1.02,1.97,1.8,3.26,2.35c1.28,0.55,2.75,0.82,4.39,0.82c1.88,0,3.46-0.22,4.76-0.65
		c1.3-0.43,2.39-1.03,3.26-1.8c0.87-0.77,1.56-1.65,2.07-2.65c0.51-1,0.89-2.06,1.13-3.2c0.25-1.13,0.41-2.29,0.5-3.47
		c0.08-1.18,0.12-2.34,0.12-3.47c0-0.9,0-1.71,0-2.45c0-0.73,0-1.42,0-2.05c0-0.66,0-1.31,0-1.95c0-0.67,0-1.35,0-2.05
		c0-0.67-0.01-1.35-0.02-2.05c-0.02-0.7-0.04-1.36-0.07-2c-0.03-0.63-0.08-1.22-0.15-1.77c-0.06-0.55-0.17-0.99-0.3-1.32
		c-0.33-0.93-0.89-1.69-1.7-2.28c-0.81-0.58-2-0.99-3.58-1.22v-0.5h12.24v0.5C341.74,212.06,340.77,212.38,340.07,212.85z"/>
	<path class="st1" d="M398.92,225.14c-0.39,1-0.91,1.88-1.56,2.65s-1.39,1.42-2.25,1.97c-0.86,0.55-1.73,0.99-2.62,1.32
		c-0.92,0.33-1.91,0.58-2.96,0.75c-1.05,0.16-2.11,0.29-3.19,0.37c-1.07,0.08-2.11,0.13-3.13,0.13c-0.99,0-1.88,0-2.67,0
		c0,1.07,0,1.98,0,2.75c0,0.73,0,1.38,0,1.95s0.01,1.09,0.03,1.57c0.02,0.48,0.02,1.01,0.02,1.57c0.03,1.07,0.06,1.98,0.1,2.75
		c0.03,0.77,0.21,1.4,0.54,1.9c0.26,0.43,0.77,0.87,1.53,1.3c0.76,0.43,1.81,0.68,3.16,0.75v0.5h-15.79v-0.5
		c0.82-0.13,1.61-0.33,2.37-0.6c0.76-0.26,1.35-0.67,1.78-1.2c0.17-0.2,0.3-0.5,0.39-0.9c0.1-0.4,0.17-0.85,0.22-1.35
		c0.05-0.5,0.09-1.03,0.12-1.6c0.03-0.57,0.05-1.12,0.05-1.65c0-0.46,0.01-1.1,0.02-1.9c0.02-0.8,0.03-1.67,0.05-2.62
		c0.02-0.95,0.03-1.93,0.03-2.92c0-1.03,0-2,0-2.9v-9.74c0-0.6-0.01-1.21-0.03-1.82c-0.02-0.62-0.05-1.2-0.1-1.75
		c-0.05-0.55-0.13-1.05-0.25-1.5c-0.12-0.45-0.27-0.77-0.47-0.97c-0.5-0.53-1.13-0.89-1.9-1.07c-0.77-0.18-1.6-0.34-2.49-0.48v-0.5
		c0.2,0,0.59,0,1.18,0c0.63,0,1.36-0.01,2.2-0.02c0.84-0.02,1.75-0.02,2.74-0.02c0.99,0,1.97-0.01,2.94-0.03
		c0.97-0.02,1.88-0.02,2.74-0.02c0.89,0,1.63,0,2.22,0c2.17,0,4.1,0.11,5.77,0.33c1.68,0.22,3.26,0.74,4.74,1.57
		c1.45,0.8,2.65,1.93,3.6,3.4c0.95,1.47,1.43,3.2,1.43,5.2C399.51,223.02,399.31,224.14,398.92,225.14z M392.73,216.39
		c-0.97-1.5-2.25-2.63-3.82-3.4c-0.79-0.37-1.63-0.61-2.52-0.75c-0.89-0.13-1.81-0.2-2.76-0.2c-0.69,0-1.23,0.02-1.6,0.08
		c-0.38,0.05-0.68,0.09-0.91,0.12c-0.03,0.2-0.07,0.37-0.12,0.53c-0.05,0.15-0.09,0.34-0.13,0.57c-0.03,0.23-0.06,0.56-0.1,0.97
		c-0.03,0.42-0.07,1.01-0.1,1.77c-0.03,1.16-0.06,2.58-0.07,4.25c-0.02,1.67-0.03,3.3-0.03,4.9c0,1.6,0,3,0,4.2c0,1.2,0,1.93,0,2.2
		c1.35,0,2.62-0.04,3.8-0.12c1.19-0.08,2.29-0.31,3.31-0.67c2.11-0.73,3.72-1.94,4.84-3.62c1.12-1.68,1.68-3.57,1.68-5.67
		C394.18,219.61,393.7,217.89,392.73,216.39z"/>
</g>
<g>
	<path class="st1" d="M56.09,314.07v-0.33c0.85-0.04,1.57-0.22,2.14-0.54c0.58-0.32,0.96-0.69,1.16-1.12
		c0.12-0.26,0.21-0.59,0.27-0.98c0.06-0.39,0.1-0.79,0.12-1.19c0.04-1.33,0.06-2.59,0.06-3.8c0-1.2,0-2.45,0-3.74v-8.53
		c-0.66,1.49-1.26,2.85-1.8,4.1c-0.55,1.25-1.09,2.46-1.62,3.65c-0.54,1.19-1.08,2.4-1.62,3.63c-0.55,1.24-1.15,2.6-1.8,4.09
		c-0.1,0.2-0.24,0.52-0.42,0.95c-0.18,0.43-0.36,0.88-0.54,1.33c-0.18,0.45-0.35,0.86-0.51,1.24c-0.16,0.37-0.26,0.62-0.3,0.74
		h-0.18c-0.64-1.49-1.27-2.96-1.89-4.43c-0.63-1.47-1.24-2.88-1.83-4.24c-0.6-1.36-1.15-2.63-1.67-3.81
		c-0.52-1.18-0.98-2.24-1.4-3.16c-0.42-0.92-0.76-1.7-1.03-2.32c-0.27-0.62-0.45-1.04-0.55-1.27c0,1.33-0.01,2.5-0.02,3.51
		c-0.01,1.02-0.02,2.02-0.03,3.01c-0.01,1-0.02,2.05-0.02,3.15c0,1.11,0,2.39,0,3.86c0,0.95,0.03,1.76,0.09,2.46
		c0.06,0.69,0.21,1.28,0.45,1.75c0.24,0.47,0.6,0.84,1.09,1.12c0.49,0.27,1.16,0.47,2.01,0.59v0.3H38.5v-0.3
		c0.69-0.14,1.26-0.35,1.7-0.62c0.44-0.27,0.78-0.65,1.04-1.13c0.26-0.48,0.45-1.08,0.57-1.79c0.12-0.71,0.19-1.58,0.21-2.61
		c0.04-0.86,0.07-1.88,0.09-3.06c0.02-1.17,0.03-2.44,0.03-3.78c0-0.58,0-1.07,0-1.48c0-0.4,0-0.79,0-1.15c0-0.38,0-0.77,0-1.18
		c0-0.4-0.01-0.89-0.03-1.48c-0.02-0.56-0.14-1.02-0.36-1.37c-0.22-0.35-0.48-0.63-0.77-0.83c-0.3-0.2-0.62-0.35-0.95-0.44
		c-0.34-0.09-0.63-0.16-0.86-0.2v-0.3h6.34l7.12,16.4c0.87-1.91,1.73-3.81,2.56-5.7c0.83-1.89,1.58-3.6,2.25-5.12
		c0.67-1.53,1.21-2.8,1.64-3.81c0.43-1.02,0.67-1.6,0.73-1.76h6.34v0.3c-0.81,0.02-1.43,0.19-1.86,0.51
		c-0.43,0.32-0.72,0.7-0.88,1.15c-0.12,0.34-0.2,0.88-0.24,1.6c-0.04,0.72-0.07,1.44-0.09,2.14c-0.02,0.96-0.03,1.9-0.03,2.8
		c0,0.9,0,1.82,0,2.74c0,1.08,0,2.17,0,3.26c0,1.06,0.01,2.19,0.03,3.38c0,0.38,0.02,0.77,0.07,1.16c0.05,0.39,0.13,0.7,0.25,0.92
		c0.02,0.04,0.09,0.13,0.22,0.29c0.13,0.15,0.31,0.31,0.55,0.48s0.54,0.32,0.89,0.45c0.36,0.13,0.77,0.21,1.25,0.23v0.3H56.09z"/>
	<path class="st1" d="M80.84,312.23c-0.16,0.36-0.37,0.69-0.63,0.98c-0.26,0.29-0.56,0.51-0.91,0.66c-0.35,0.15-0.73,0.23-1.15,0.23
		c-0.67,0-1.28-0.2-1.8-0.6c-0.53-0.4-0.79-1.1-0.79-2.11l-0.06-0.03c-0.16,0.26-0.37,0.55-0.64,0.87
		c-0.27,0.32-0.59,0.62-0.95,0.91c-0.37,0.28-0.77,0.51-1.22,0.68c-0.45,0.17-0.94,0.26-1.47,0.26c-0.32,0-0.64-0.04-0.97-0.14
		c-0.33-0.09-0.63-0.25-0.89-0.48c-0.27-0.23-0.49-0.53-0.66-0.89c-0.17-0.36-0.25-0.8-0.25-1.32c0-0.56,0.22-1.1,0.67-1.63
		c0.45-0.52,1-1,1.65-1.42c0.66-0.42,1.24-0.78,1.74-1.08c0.51-0.3,0.95-0.56,1.32-0.77c0.38-0.21,0.71-0.39,1-0.54
		c0.29-0.15,0.53-0.29,0.73-0.41v-3.11c0-0.04-0.04-0.14-0.1-0.29s-0.19-0.31-0.36-0.47c-0.17-0.16-0.4-0.31-0.7-0.44
		c-0.3-0.13-0.68-0.2-1.16-0.2c-0.32,0-0.63,0.05-0.94,0.16c-0.31,0.11-0.58,0.25-0.82,0.42c-0.24,0.17-0.43,0.34-0.57,0.51
		c-0.14,0.17-0.21,0.32-0.21,0.44v1.36c0,0.28-0.14,0.53-0.43,0.75s-0.6,0.33-0.94,0.33c-0.32,0-0.59-0.12-0.82-0.35
		c-0.23-0.23-0.34-0.5-0.34-0.8c0-0.24,0.06-0.46,0.18-0.66c0.12-0.2,0.27-0.38,0.45-0.54c0.18-0.16,0.37-0.3,0.58-0.42
		c0.21-0.12,0.39-0.23,0.55-0.33c0.52-0.3,1.04-0.59,1.58-0.87c0.54-0.28,1.05-0.52,1.53-0.72c0.49-0.2,0.93-0.36,1.34-0.48
		c0.41-0.12,0.74-0.18,1-0.18c0.52,0,1,0.14,1.46,0.41c0.46,0.27,0.78,0.61,0.98,1.01c0.08,0.14,0.13,0.39,0.15,0.74
		c0.02,0.35,0.03,0.7,0.03,1.04c0,0.72-0.01,1.38-0.02,1.96c-0.01,0.58-0.01,1.15-0.01,1.69c0,0.54-0.01,1.1-0.02,1.67
		c-0.01,0.57-0.02,1.2-0.02,1.88c0,0.9,0.15,1.5,0.46,1.79c0.31,0.29,0.66,0.44,1.06,0.44c0.46,0,0.79-0.1,1.01-0.29
		s0.37-0.44,0.45-0.74h0.18C81.09,311.5,81,311.87,80.84,312.23z M75.57,305.87c-0.36,0.26-0.8,0.54-1.34,0.83
		c-0.54,0.29-1.06,0.61-1.56,0.95c-0.51,0.34-0.94,0.72-1.31,1.13c-0.37,0.41-0.55,0.88-0.55,1.4c0,0.52,0.18,1,0.54,1.42
		c0.36,0.42,0.82,0.63,1.4,0.63c0.52,0,0.97-0.06,1.37-0.18c0.4-0.12,0.76-0.35,1.1-0.69c0.24-0.22,0.36-0.5,0.36-0.84V305.87z"/>
	<path class="st1" d="M89.77,314.07v-0.33c0.54-0.04,0.96-0.11,1.28-0.2c0.32-0.09,0.48-0.3,0.48-0.62v-7.6
		c0-1.16-0.22-2.1-0.66-2.82c-0.44-0.71-1.17-1.07-2.2-1.07c-0.66,0-1.2,0.14-1.64,0.42c-0.44,0.28-0.92,0.69-1.46,1.24v9.89
		c0.04,0.2,0.11,0.35,0.21,0.44c0.1,0.09,0.22,0.15,0.36,0.2c0.14,0.04,0.3,0.07,0.48,0.08c0.18,0.01,0.37,0.03,0.56,0.08v0.3h-5.75
		v-0.3c0.46-0.04,0.85-0.13,1.18-0.27c0.33-0.14,0.49-0.37,0.49-0.69v-10.37c0-0.16-0.02-0.28-0.05-0.36
		c-0.03-0.08-0.11-0.17-0.25-0.27c-0.18-0.1-0.39-0.22-0.63-0.35c-0.24-0.13-0.48-0.25-0.71-0.35v-0.18l3.9-1.42h0.18v3.26
		l0.06,0.03c0.22-0.34,0.49-0.71,0.82-1.1c0.33-0.39,0.7-0.75,1.11-1.07c0.42-0.32,0.87-0.59,1.36-0.8
		c0.49-0.21,1.01-0.32,1.54-0.32c1.15,0,2.03,0.43,2.64,1.3c0.61,0.86,0.92,1.98,0.92,3.35v8.86c0,0.14,0.06,0.26,0.19,0.36
		c0.13,0.1,0.28,0.18,0.46,0.23c0.18,0.05,0.37,0.09,0.58,0.12c0.21,0.03,0.4,0.05,0.58,0.08v0.27H89.77z"/>
	<path class="st1" d="M109.69,312.23c-0.16,0.36-0.37,0.69-0.63,0.98c-0.26,0.29-0.56,0.51-0.91,0.66
		c-0.35,0.15-0.73,0.23-1.15,0.23c-0.67,0-1.28-0.2-1.8-0.6c-0.53-0.4-0.79-1.1-0.79-2.11l-0.06-0.03
		c-0.16,0.26-0.37,0.55-0.64,0.87c-0.27,0.32-0.59,0.62-0.95,0.91c-0.37,0.28-0.77,0.51-1.22,0.68c-0.45,0.17-0.94,0.26-1.47,0.26
		c-0.32,0-0.64-0.04-0.97-0.14c-0.33-0.09-0.63-0.25-0.89-0.48c-0.27-0.23-0.49-0.53-0.66-0.89c-0.17-0.36-0.25-0.8-0.25-1.32
		c0-0.56,0.22-1.1,0.67-1.63c0.45-0.52,1-1,1.65-1.42c0.66-0.42,1.24-0.78,1.74-1.08c0.51-0.3,0.95-0.56,1.32-0.77
		c0.38-0.21,0.71-0.39,1-0.54c0.29-0.15,0.53-0.29,0.73-0.41v-3.11c0-0.04-0.04-0.14-0.1-0.29s-0.19-0.31-0.36-0.47
		c-0.17-0.16-0.4-0.31-0.7-0.44c-0.3-0.13-0.68-0.2-1.16-0.2c-0.32,0-0.63,0.05-0.94,0.16c-0.31,0.11-0.58,0.25-0.82,0.42
		c-0.24,0.17-0.43,0.34-0.57,0.51c-0.14,0.17-0.21,0.32-0.21,0.44v1.36c0,0.28-0.14,0.53-0.43,0.75s-0.6,0.33-0.94,0.33
		c-0.32,0-0.59-0.12-0.82-0.35c-0.23-0.23-0.34-0.5-0.34-0.8c0-0.24,0.06-0.46,0.18-0.66c0.12-0.2,0.27-0.38,0.45-0.54
		c0.18-0.16,0.37-0.3,0.58-0.42c0.21-0.12,0.39-0.23,0.55-0.33c0.52-0.3,1.04-0.59,1.58-0.87c0.54-0.28,1.05-0.52,1.53-0.72
		s0.93-0.36,1.34-0.48c0.41-0.12,0.74-0.18,1-0.18c0.52,0,1,0.14,1.46,0.41c0.46,0.27,0.78,0.61,0.98,1.01
		c0.08,0.14,0.13,0.39,0.15,0.74c0.02,0.35,0.03,0.7,0.03,1.04c0,0.72-0.01,1.38-0.02,1.96c-0.01,0.58-0.01,1.15-0.01,1.69
		c0,0.54-0.01,1.1-0.02,1.67c-0.01,0.57-0.02,1.2-0.02,1.88c0,0.9,0.15,1.5,0.46,1.79s0.66,0.44,1.06,0.44
		c0.46,0,0.79-0.1,1.01-0.29s0.37-0.44,0.45-0.74h0.18C109.94,311.5,109.85,311.87,109.69,312.23z M104.42,305.87
		c-0.36,0.26-0.8,0.54-1.34,0.83c-0.54,0.29-1.06,0.61-1.56,0.95c-0.51,0.34-0.94,0.72-1.31,1.13c-0.37,0.41-0.55,0.88-0.55,1.4
		c0,0.52,0.18,1,0.54,1.42c0.36,0.42,0.82,0.63,1.4,0.63c0.52,0,0.97-0.06,1.37-0.18c0.4-0.12,0.76-0.35,1.1-0.69
		c0.24-0.22,0.36-0.5,0.36-0.84V305.87z"/>
	<path class="st1" d="M125.07,301.96c-0.21,0.23-0.46,0.35-0.76,0.35c-0.12,0-0.3-0.05-0.54-0.15c-0.24-0.1-0.5-0.22-0.79-0.36
		c-0.29-0.14-0.58-0.3-0.88-0.47c-0.3-0.17-0.57-0.33-0.8-0.47l-0.12,0.12c0.3,0.46,0.55,0.9,0.76,1.3c0.21,0.4,0.31,0.92,0.31,1.57
		c0,1.59-0.55,2.78-1.64,3.57c-1.09,0.79-2.6,1.19-4.53,1.19c-0.28,0-0.56-0.02-0.85-0.06c-0.29-0.04-0.63-0.06-1.03-0.06
		c-0.64,0.04-1.14,0.19-1.52,0.45s-0.57,0.59-0.57,1c0,0.32,0.1,0.59,0.3,0.8c0.2,0.21,0.45,0.38,0.74,0.5
		c0.3,0.12,0.63,0.2,0.98,0.24c0.36,0.04,0.7,0.06,1.04,0.06h4.76c0.69,0,1.32,0.11,1.88,0.33c0.55,0.22,1.03,0.52,1.43,0.9
		c0.4,0.38,0.7,0.82,0.91,1.31c0.21,0.49,0.31,1.04,0.31,1.64c0,0.78-0.19,1.53-0.58,2.24c-0.39,0.71-0.93,1.34-1.62,1.88
		c-0.7,0.54-1.51,0.97-2.46,1.28c-0.94,0.31-1.98,0.47-3.11,0.47c-2.16,0-3.85-0.33-5.05-0.98s-1.8-1.55-1.8-2.7
		c0-0.42,0.11-0.8,0.34-1.15c0.23-0.34,0.52-0.67,0.86-0.98c0.35-0.31,0.73-0.6,1.16-0.88c0.43-0.27,0.85-0.54,1.27-0.8v-0.06
		c-1.01-0.12-1.79-0.41-2.34-0.88c-0.55-0.46-0.82-1.07-0.82-1.84c0-0.38,0.09-0.74,0.27-1.08c0.18-0.34,0.43-0.65,0.74-0.94
		c0.32-0.28,0.69-0.52,1.12-0.71c0.43-0.19,0.89-0.32,1.39-0.38v-0.09c-0.87-0.34-1.55-0.84-2.04-1.51s-0.73-1.51-0.73-2.53
		c0-0.64,0.14-1.25,0.43-1.81c0.29-0.56,0.69-1.05,1.21-1.46c0.52-0.41,1.13-0.74,1.83-0.98c0.7-0.24,1.47-0.36,2.31-0.36
		c0.75,0,1.42,0.07,2.01,0.21c0.58,0.14,1.2,0.38,1.83,0.72c0.24,0.08,0.44,0.13,0.61,0.15c0.17,0.02,0.37,0.03,0.61,0.03
		s0.45-0.03,0.64-0.11c0.19-0.07,0.36-0.15,0.52-0.24c0.16-0.09,0.33-0.17,0.51-0.24c0.18-0.07,0.39-0.1,0.63-0.1
		c0.34,0,0.62,0.12,0.83,0.36c0.22,0.24,0.33,0.53,0.33,0.88C125.38,301.47,125.28,301.74,125.07,301.96z M122.14,315.45
		c-0.24-0.42-0.53-0.71-0.86-0.87c-0.44-0.22-0.98-0.38-1.64-0.47c-0.66-0.09-1.56-0.13-2.71-0.13c-0.42,0-0.84,0.02-1.28,0.06
		c-0.44,0.04-0.79,0.08-1.07,0.12c-0.93,0.24-1.58,0.62-1.94,1.15c-0.36,0.52-0.54,1.09-0.54,1.72c0,0.64,0.17,1.2,0.52,1.69
		c0.35,0.48,0.78,0.89,1.3,1.22c0.52,0.33,1.07,0.58,1.65,0.74s1.13,0.24,1.62,0.24c0.6,0,1.11-0.03,1.53-0.09
		c0.43-0.06,0.81-0.15,1.15-0.27c0.69-0.28,1.31-0.73,1.83-1.36c0.53-0.62,0.79-1.37,0.79-2.23
		C122.5,316.38,122.38,315.88,122.14,315.45z M119.67,302.37c-0.14-0.46-0.34-0.87-0.61-1.22c-0.27-0.35-0.61-0.63-1.01-0.84
		c-0.41-0.21-0.88-0.32-1.41-0.32c-0.5,0-0.94,0.12-1.34,0.35c-0.4,0.23-0.73,0.54-1,0.93c-0.27,0.39-0.47,0.84-0.61,1.34
		c-0.14,0.5-0.21,1.02-0.21,1.54c0,1.21,0.3,2.18,0.91,2.91c0.61,0.73,1.34,1.1,2.22,1.1c0.54,0,1.01-0.12,1.42-0.36
		c0.41-0.24,0.75-0.56,1.03-0.96c0.28-0.4,0.49-0.86,0.63-1.37c0.14-0.51,0.21-1.05,0.21-1.61
		C119.88,303.33,119.81,302.84,119.67,302.37z"/>
	<path class="st1" d="M137.44,310.98c-0.28,0.55-0.66,1.06-1.13,1.52s-1.05,0.84-1.71,1.15c-0.67,0.3-1.41,0.45-2.22,0.45
		c-1.01,0-1.93-0.19-2.77-0.57c-0.83-0.38-1.54-0.92-2.13-1.61c-0.59-0.69-1.04-1.51-1.35-2.44c-0.32-0.93-0.48-1.92-0.48-2.97
		c0-0.84,0.15-1.68,0.45-2.52c0.3-0.83,0.72-1.58,1.27-2.25c0.55-0.66,1.21-1.2,2-1.61s1.65-0.62,2.61-0.62c0.77,0,1.5,0.1,2.19,0.3
		c0.69,0.2,1.28,0.51,1.79,0.92c0.51,0.41,0.92,0.93,1.24,1.55c0.32,0.62,0.51,1.36,0.57,2.2h-9.56c0,0.16-0.01,0.35-0.03,0.56
		c-0.02,0.21-0.03,0.43-0.03,0.65c0,0.84,0.12,1.65,0.36,2.43c0.24,0.78,0.59,1.46,1.04,2.05c0.46,0.59,1.03,1.06,1.73,1.4
		c0.69,0.34,1.5,0.51,2.41,0.51c0.99,0,1.86-0.26,2.61-0.77c0.74-0.51,1.24-1.14,1.47-1.88l0.24,0.06
		C137.9,309.93,137.72,310.43,137.44,310.98z M134.03,300.82c-0.51-0.53-1.19-0.8-2.04-0.8c-0.56,0-1.06,0.16-1.5,0.5
		c-0.45,0.33-0.83,0.72-1.16,1.16c-0.33,0.44-0.58,0.89-0.76,1.34c-0.18,0.45-0.29,0.8-0.33,1.04c0.46,0,0.86,0,1.22,0
		c0.36,0,0.71,0,1.06-0.01c0.35-0.01,0.71-0.02,1.09-0.03c0.38-0.01,0.79-0.02,1.25-0.02c0.3,0,0.57-0.01,0.83-0.03
		c0.26-0.02,0.49-0.07,0.68-0.15c0.14-0.16,0.24-0.31,0.31-0.45c0.07-0.14,0.1-0.35,0.1-0.63
		C134.79,301.99,134.54,301.35,134.03,300.82z"/>
	<path class="st1" d="M155.46,314.07v-0.33c0.54-0.04,0.94-0.11,1.22-0.2c0.28-0.09,0.42-0.3,0.42-0.62v-7.69
		c0-1.17-0.21-2.1-0.61-2.79c-0.41-0.69-1.13-1.04-2.17-1.04c-0.66,0-1.21,0.18-1.65,0.53c-0.44,0.35-0.9,0.8-1.38,1.34v9.74
		c0,0.14,0.05,0.26,0.15,0.36c0.1,0.1,0.23,0.18,0.39,0.23c0.16,0.05,0.33,0.09,0.52,0.12c0.19,0.03,0.37,0.05,0.55,0.08v0.27h-5.84
		v-0.33c0.54-0.04,0.96-0.11,1.28-0.2c0.32-0.09,0.48-0.3,0.48-0.62v-7.72c0-1.19-0.2-2.11-0.61-2.79
		c-0.41-0.67-1.13-1.01-2.16-1.01c-0.66,0-1.19,0.14-1.61,0.42c-0.42,0.28-0.88,0.7-1.4,1.27v9.89c0.04,0.2,0.11,0.35,0.21,0.44
		c0.1,0.09,0.22,0.15,0.37,0.2c0.15,0.04,0.31,0.07,0.49,0.08c0.18,0.01,0.37,0.03,0.57,0.08v0.3h-5.78v-0.3
		c0.46-0.04,0.85-0.13,1.18-0.27c0.33-0.14,0.49-0.37,0.49-0.69v-10.31c0-0.16-0.02-0.28-0.04-0.36c-0.03-0.08-0.11-0.17-0.25-0.27
		c-0.18-0.1-0.39-0.22-0.63-0.35c-0.24-0.13-0.48-0.25-0.71-0.35v-0.24l3.9-1.42h0.18v3.26l0.06,0.03c0.2-0.36,0.45-0.74,0.77-1.13
		c0.32-0.39,0.68-0.74,1.1-1.05s0.87-0.57,1.35-0.78c0.49-0.21,0.99-0.32,1.53-0.32c0.95,0,1.72,0.32,2.3,0.95
		c0.58,0.63,0.94,1.48,1.08,2.55h0.09c0.18-0.36,0.43-0.75,0.74-1.16c0.32-0.41,0.69-0.79,1.1-1.15c0.42-0.35,0.88-0.64,1.38-0.86
		c0.51-0.22,1.03-0.33,1.56-0.33c1.15,0,2.02,0.42,2.61,1.27c0.58,0.84,0.88,1.93,0.88,3.26v8.98c0,0.14,0.06,0.26,0.18,0.36
		c0.12,0.1,0.26,0.18,0.43,0.23c0.17,0.05,0.35,0.09,0.55,0.12c0.2,0.03,0.39,0.05,0.57,0.08v0.27H155.46z"/>
	<path class="st1" d="M174.04,310.98c-0.28,0.55-0.66,1.06-1.13,1.52s-1.05,0.84-1.71,1.15c-0.67,0.3-1.41,0.45-2.22,0.45
		c-1.01,0-1.93-0.19-2.77-0.57c-0.83-0.38-1.54-0.92-2.13-1.61c-0.59-0.69-1.04-1.51-1.35-2.44c-0.32-0.93-0.48-1.92-0.48-2.97
		c0-0.84,0.15-1.68,0.45-2.52c0.3-0.83,0.72-1.58,1.27-2.25c0.55-0.66,1.21-1.2,2-1.61s1.65-0.62,2.61-0.62c0.77,0,1.5,0.1,2.19,0.3
		c0.69,0.2,1.28,0.51,1.79,0.92c0.51,0.41,0.92,0.93,1.24,1.55c0.32,0.62,0.51,1.36,0.57,2.2h-9.56c0,0.16-0.01,0.35-0.03,0.56
		c-0.02,0.21-0.03,0.43-0.03,0.65c0,0.84,0.12,1.65,0.36,2.43c0.24,0.78,0.59,1.46,1.04,2.05c0.46,0.59,1.03,1.06,1.73,1.4
		c0.69,0.34,1.5,0.51,2.41,0.51c0.99,0,1.86-0.26,2.61-0.77c0.74-0.51,1.24-1.14,1.47-1.88l0.24,0.06
		C174.5,309.93,174.32,310.43,174.04,310.98z M170.63,300.82c-0.51-0.53-1.19-0.8-2.04-0.8c-0.56,0-1.06,0.16-1.5,0.5
		c-0.45,0.33-0.83,0.72-1.16,1.16c-0.33,0.44-0.58,0.89-0.76,1.34c-0.18,0.45-0.29,0.8-0.33,1.04c0.46,0,0.86,0,1.22,0
		c0.36,0,0.71,0,1.06-0.01c0.35-0.01,0.71-0.02,1.09-0.03c0.38-0.01,0.79-0.02,1.25-0.02c0.3,0,0.57-0.01,0.83-0.03
		c0.26-0.02,0.49-0.07,0.68-0.15c0.14-0.16,0.24-0.31,0.31-0.45c0.07-0.14,0.1-0.35,0.1-0.63
		C171.39,301.99,171.14,301.35,170.63,300.82z"/>
	<path class="st1" d="M183.81,314.07v-0.33c0.54-0.04,0.96-0.11,1.28-0.2c0.32-0.09,0.48-0.3,0.48-0.62v-7.6
		c0-1.16-0.22-2.1-0.66-2.82c-0.44-0.71-1.17-1.07-2.2-1.07c-0.66,0-1.2,0.14-1.64,0.42c-0.44,0.28-0.92,0.69-1.46,1.24v9.89
		c0.04,0.2,0.11,0.35,0.21,0.44c0.1,0.09,0.22,0.15,0.36,0.2c0.14,0.04,0.3,0.07,0.48,0.08c0.18,0.01,0.37,0.03,0.56,0.08v0.3h-5.75
		v-0.3c0.46-0.04,0.85-0.13,1.18-0.27c0.33-0.14,0.49-0.37,0.49-0.69v-10.37c0-0.16-0.02-0.28-0.05-0.36
		c-0.03-0.08-0.11-0.17-0.25-0.27c-0.18-0.1-0.39-0.22-0.63-0.35c-0.24-0.13-0.48-0.25-0.71-0.35v-0.18l3.9-1.42h0.18v3.26
		l0.06,0.03c0.22-0.34,0.49-0.71,0.82-1.1c0.33-0.39,0.7-0.75,1.11-1.07c0.42-0.32,0.87-0.59,1.36-0.8
		c0.49-0.21,1.01-0.32,1.54-0.32c1.15,0,2.03,0.43,2.64,1.3c0.61,0.86,0.92,1.98,0.92,3.35v8.86c0,0.14,0.06,0.26,0.19,0.36
		c0.13,0.1,0.28,0.18,0.46,0.23c0.18,0.05,0.37,0.09,0.58,0.12c0.21,0.03,0.4,0.05,0.58,0.08v0.27H183.81z"/>
	<path class="st1" d="M199.65,301.65h-4.53v7.93c0,1.02,0.22,1.77,0.65,2.23c0.44,0.46,1,0.69,1.7,0.69c0.58,0,1.05-0.1,1.43-0.29
		c0.38-0.19,0.7-0.49,0.98-0.89l0.18,0.09c-0.12,0.3-0.28,0.62-0.49,0.95c-0.21,0.33-0.49,0.63-0.83,0.9
		c-0.35,0.27-0.75,0.48-1.22,0.63c-0.47,0.15-1.02,0.23-1.65,0.23c-0.42,0-0.82-0.07-1.2-0.2c-0.38-0.13-0.72-0.32-1.02-0.57
		c-0.29-0.25-0.53-0.53-0.72-0.84c-0.19-0.31-0.28-0.63-0.28-0.95c0-1.89,0.01-3.68,0.03-5.38c0.02-1.7,0.03-3.21,0.03-4.54h-2.17
		v-0.33l4.29-4.13h0.24v2.62h5.51L199.65,301.65z"/>
	<path class="st1" d="M222.08,310.72c-0.39,0.76-0.92,1.42-1.61,1.96c-0.68,0.54-1.5,0.94-2.46,1.2c-0.95,0.26-2,0.39-3.13,0.39
		c-0.97,0-1.81-0.06-2.5-0.18c-0.69-0.12-1.27-0.27-1.73-0.44c-0.46-0.17-0.8-0.33-1.03-0.47c-0.23-0.14-0.37-0.21-0.43-0.21
		c-0.06,0-0.19,0.12-0.39,0.36c-0.2,0.24-0.38,0.47-0.54,0.69h-0.27l-0.09-6h0.3c0.18,0.54,0.41,1.07,0.68,1.58
		c0.28,0.51,0.58,1,0.91,1.45c0.33,0.45,0.67,0.85,1.04,1.19c0.37,0.34,0.72,0.6,1.06,0.78c0.34,0.18,0.78,0.36,1.34,0.54
		c0.55,0.18,1.09,0.27,1.61,0.27c1.47,0,2.66-0.41,3.57-1.22c0.91-0.81,1.37-1.91,1.37-3.3c0-0.56-0.09-1.05-0.27-1.48
		c-0.18-0.42-0.42-0.79-0.73-1.1c-0.31-0.31-0.67-0.58-1.09-0.8c-0.42-0.22-0.86-0.42-1.34-0.6c-0.48-0.18-0.89-0.33-1.25-0.45
		c-0.36-0.12-0.69-0.24-1-0.35c-0.31-0.11-0.63-0.22-0.95-0.33c-0.33-0.11-0.72-0.25-1.18-0.44c-0.52-0.2-1.01-0.48-1.49-0.83
		c-0.48-0.35-0.89-0.76-1.25-1.24c-0.36-0.47-0.65-1-0.86-1.57c-0.22-0.57-0.33-1.18-0.33-1.83c0-1.08,0.19-2.02,0.59-2.8
		c0.39-0.78,0.92-1.44,1.58-1.96c0.66-0.52,1.42-0.91,2.29-1.16c0.86-0.25,1.77-0.38,2.72-0.38c0.89,0,1.66,0.08,2.29,0.23
		c0.64,0.15,1.16,0.32,1.56,0.5c0.41,0.18,0.71,0.35,0.92,0.5c0.21,0.15,0.32,0.23,0.34,0.23c0.06,0,0.18-0.12,0.37-0.36
		c0.19-0.24,0.36-0.48,0.52-0.72h0.33v5.58h-0.33c-0.24-0.66-0.55-1.32-0.92-1.98c-0.38-0.65-0.81-1.24-1.31-1.75
		s-1.06-0.93-1.7-1.25c-0.64-0.32-1.34-0.48-2.11-0.48c-0.62,0-1.2,0.09-1.74,0.27c-0.55,0.18-1.02,0.45-1.43,0.81
		c-0.41,0.36-0.72,0.81-0.95,1.34c-0.23,0.53-0.34,1.14-0.34,1.82c0,1.07,0.32,1.92,0.95,2.56c0.63,0.64,1.46,1.16,2.47,1.54
		c0.39,0.16,0.77,0.3,1.11,0.42c0.35,0.12,0.69,0.24,1.03,0.35c0.34,0.11,0.68,0.23,1.03,0.35c0.35,0.12,0.71,0.25,1.08,0.39
		c1.35,0.5,2.39,1.23,3.13,2.19c0.74,0.96,1.11,2.15,1.11,3.57C222.66,309.1,222.47,309.96,222.08,310.72z"/>
	<path class="st1" d="M236.42,310.98c-0.28,0.55-0.66,1.06-1.13,1.52s-1.05,0.84-1.71,1.15c-0.67,0.3-1.41,0.45-2.22,0.45
		c-1.01,0-1.93-0.19-2.77-0.57c-0.83-0.38-1.54-0.92-2.13-1.61c-0.59-0.69-1.04-1.51-1.35-2.44c-0.32-0.93-0.48-1.92-0.48-2.97
		c0-0.84,0.15-1.68,0.45-2.52c0.3-0.83,0.72-1.58,1.27-2.25c0.55-0.66,1.21-1.2,2-1.61c0.78-0.41,1.65-0.62,2.61-0.62
		c0.77,0,1.5,0.1,2.19,0.3c0.69,0.2,1.28,0.51,1.79,0.92c0.51,0.41,0.92,0.93,1.24,1.55c0.32,0.62,0.51,1.36,0.57,2.2h-9.56
		c0,0.16-0.01,0.35-0.03,0.56c-0.02,0.21-0.03,0.43-0.03,0.65c0,0.84,0.12,1.65,0.36,2.43c0.24,0.78,0.59,1.46,1.04,2.05
		c0.46,0.59,1.03,1.06,1.73,1.4c0.69,0.34,1.5,0.51,2.41,0.51c0.99,0,1.86-0.26,2.61-0.77c0.74-0.51,1.24-1.14,1.47-1.88l0.24,0.06
		C236.88,309.93,236.7,310.43,236.42,310.98z M233.01,300.82c-0.51-0.53-1.19-0.8-2.04-0.8c-0.56,0-1.06,0.16-1.5,0.5
		c-0.45,0.33-0.83,0.72-1.16,1.16c-0.33,0.44-0.58,0.89-0.76,1.34c-0.18,0.45-0.29,0.8-0.33,1.04c0.46,0,0.86,0,1.22,0
		c0.36,0,0.71,0,1.06-0.01c0.35-0.01,0.71-0.02,1.09-0.03c0.38-0.01,0.79-0.02,1.25-0.02c0.3,0,0.57-0.01,0.83-0.03
		s0.49-0.07,0.68-0.15c0.14-0.16,0.24-0.31,0.31-0.45c0.07-0.14,0.1-0.35,0.1-0.63C233.77,301.99,233.52,301.35,233.01,300.82z"/>
	<path class="st1" d="M247.56,302.21c-0.26,0.29-0.56,0.44-0.89,0.44c-0.32,0-0.57-0.05-0.76-0.17c-0.19-0.11-0.35-0.24-0.49-0.38
		c-0.14-0.14-0.29-0.27-0.45-0.38c-0.16-0.11-0.38-0.17-0.66-0.17c-0.24,0-0.47,0.09-0.7,0.26c-0.23,0.17-0.44,0.39-0.64,0.65
		c-0.2,0.26-0.38,0.56-0.54,0.89c-0.16,0.33-0.3,0.65-0.42,0.95v8.68c0.06,0.18,0.19,0.32,0.39,0.42c0.2,0.1,0.42,0.17,0.67,0.21
		c0.25,0.04,0.51,0.07,0.77,0.08c0.27,0.01,0.5,0.03,0.7,0.08v0.3h-6.67v-0.3c0.46-0.04,0.85-0.13,1.18-0.27
		c0.33-0.14,0.49-0.37,0.49-0.69v-10.19c0-0.16-0.02-0.28-0.04-0.36c-0.03-0.08-0.11-0.17-0.25-0.27c-0.18-0.1-0.39-0.23-0.63-0.38
		s-0.48-0.28-0.71-0.38v-0.18l3.9-1.54h0.18l-0.06,4.19h0.06c0.1-0.24,0.26-0.59,0.48-1.05c0.22-0.46,0.5-0.93,0.83-1.4
		s0.74-0.88,1.22-1.22s1.02-0.51,1.64-0.51c0.5,0,0.92,0.15,1.27,0.45c0.35,0.3,0.52,0.68,0.52,1.15
		C247.95,301.55,247.82,301.92,247.56,302.21z"/>
	<path class="st1" d="M261.6,300.2c-0.29,0.04-0.58,0.12-0.88,0.23c-0.3,0.11-0.58,0.28-0.83,0.5c-0.26,0.22-0.47,0.51-0.63,0.88
		c-0.24,0.56-0.51,1.22-0.82,1.99c-0.31,0.76-0.63,1.57-0.97,2.41c-0.34,0.84-0.67,1.69-1,2.53c-0.33,0.84-0.63,1.62-0.91,2.32
		c-0.16,0.36-0.29,0.67-0.4,0.92c-0.11,0.25-0.21,0.49-0.31,0.71c-0.1,0.22-0.19,0.43-0.28,0.63s-0.19,0.43-0.31,0.69
		c-0.06,0.12-0.16,0.18-0.3,0.18c-0.08,0-0.14-0.02-0.18-0.08c-0.04-0.05-0.07-0.1-0.09-0.13c-0.32-0.82-0.62-1.6-0.89-2.34
		c-0.28-0.73-0.57-1.49-0.86-2.26c-0.3-0.78-0.62-1.6-0.95-2.49c-0.34-0.88-0.71-1.88-1.13-2.98c-0.06-0.16-0.14-0.38-0.25-0.65
		c-0.11-0.27-0.22-0.56-0.34-0.86c-0.12-0.3-0.24-0.59-0.36-0.87c-0.12-0.28-0.23-0.51-0.33-0.69c-0.12-0.12-0.3-0.26-0.55-0.41
		c-0.25-0.15-0.7-0.25-1.35-0.29v-0.33h7.18v0.33c-0.18,0.02-0.4,0.04-0.67,0.08c-0.27,0.03-0.52,0.08-0.76,0.14
		c-0.24,0.06-0.44,0.15-0.61,0.26c-0.17,0.11-0.25,0.28-0.25,0.5c0,0.1,0.06,0.34,0.19,0.72c0.13,0.38,0.3,0.85,0.51,1.42
		c0.21,0.56,0.44,1.19,0.7,1.87c0.26,0.68,0.52,1.37,0.79,2.05c0.27,0.68,0.53,1.35,0.79,1.99c0.26,0.65,0.48,1.21,0.66,1.69
		c0.3-0.74,0.64-1.63,1.04-2.65c0.4-1.02,0.77-2.03,1.13-3.01c0.36-0.98,0.66-1.85,0.91-2.59c0.25-0.74,0.37-1.2,0.37-1.39
		c0-0.28-0.07-0.5-0.22-0.65c-0.15-0.15-0.33-0.26-0.55-0.32c-0.22-0.06-0.45-0.09-0.69-0.09c-0.24,0-0.45-0.01-0.63-0.03v-0.3h5.78
		v0.33C262.13,300.14,261.88,300.16,261.6,300.2z"/>
	<path class="st1" d="M261.37,314.07v-0.3c0.24-0.02,0.48-0.04,0.71-0.08c0.24-0.03,0.45-0.08,0.64-0.15
		c0.19-0.07,0.35-0.17,0.48-0.29c0.13-0.12,0.19-0.27,0.19-0.45v-10.34c0-0.16-0.02-0.3-0.05-0.42c-0.03-0.12-0.11-0.23-0.25-0.33
		c-0.18-0.12-0.39-0.24-0.64-0.36c-0.25-0.12-0.51-0.23-0.79-0.33v-0.18l4.02-1.33h0.18v13.47c0.04,0.2,0.12,0.35,0.25,0.44
		c0.13,0.09,0.28,0.15,0.46,0.2c0.18,0.04,0.37,0.07,0.58,0.08c0.21,0.01,0.41,0.03,0.61,0.08v0.3H261.37z M265.65,295.91
		c-0.31,0.31-0.69,0.47-1.15,0.47c-0.44,0-0.81-0.16-1.13-0.48s-0.48-0.7-0.48-1.15c0-0.46,0.15-0.84,0.46-1.15s0.69-0.45,1.15-0.45
		c0.46,0,0.84,0.15,1.15,0.45c0.31,0.3,0.46,0.68,0.46,1.15S265.96,295.6,265.65,295.91z"/>
	<path class="st1" d="M280.73,311.46c-0.36,0.53-0.79,1.01-1.31,1.42c-0.52,0.41-1.1,0.73-1.74,0.95c-0.65,0.22-1.35,0.33-2.1,0.33
		c-0.95,0-1.84-0.19-2.65-0.56c-0.81-0.37-1.51-0.89-2.08-1.57c-0.58-0.67-1.03-1.46-1.35-2.37c-0.33-0.9-0.49-1.87-0.49-2.89
		c0-0.96,0.17-1.88,0.51-2.76c0.34-0.88,0.8-1.64,1.4-2.31c0.6-0.66,1.3-1.2,2.13-1.6c0.82-0.4,1.72-0.6,2.69-0.6
		c0.66,0,1.3,0.08,1.94,0.24c0.64,0.16,1.2,0.39,1.7,0.69c0.5,0.3,0.9,0.67,1.21,1.12c0.31,0.44,0.46,0.96,0.46,1.54
		c0,0.42-0.15,0.79-0.46,1.1s-0.67,0.47-1.09,0.47c-0.34,0-0.64-0.1-0.91-0.3c-0.27-0.2-0.44-0.45-0.52-0.75
		c0.1-0.28,0.15-0.62,0.15-1.03c0-0.74-0.19-1.36-0.58-1.85c-0.39-0.49-1-0.74-1.83-0.74c-0.62,0-1.18,0.16-1.7,0.48
		c-0.52,0.32-0.96,0.75-1.34,1.3c-0.38,0.54-0.67,1.18-0.89,1.9c-0.22,0.72-0.33,1.5-0.33,2.32c0,0.9,0.12,1.73,0.36,2.49
		c0.24,0.75,0.58,1.4,1.01,1.93c0.44,0.53,0.97,0.94,1.59,1.24c0.63,0.29,1.32,0.44,2.1,0.44c1.23,0,2.2-0.21,2.92-0.62
		c0.71-0.41,1.31-1.02,1.79-1.83l0.24,0.12C281.36,310.36,281.09,310.93,280.73,311.46z"/>
	<path class="st1" d="M293.62,310.98c-0.28,0.55-0.66,1.06-1.13,1.52s-1.05,0.84-1.71,1.15c-0.67,0.3-1.41,0.45-2.22,0.45
		c-1.01,0-1.93-0.19-2.77-0.57c-0.83-0.38-1.54-0.92-2.13-1.61c-0.59-0.69-1.04-1.51-1.35-2.44s-0.48-1.92-0.48-2.97
		c0-0.84,0.15-1.68,0.45-2.52c0.3-0.83,0.72-1.58,1.27-2.25c0.55-0.66,1.21-1.2,2-1.61s1.65-0.62,2.61-0.62c0.77,0,1.5,0.1,2.19,0.3
		c0.69,0.2,1.28,0.51,1.79,0.92c0.51,0.41,0.92,0.93,1.24,1.55c0.32,0.62,0.51,1.36,0.57,2.2h-9.56c0,0.16-0.01,0.35-0.03,0.56
		c-0.02,0.21-0.03,0.43-0.03,0.65c0,0.84,0.12,1.65,0.36,2.43c0.24,0.78,0.59,1.46,1.04,2.05c0.46,0.59,1.03,1.06,1.73,1.4
		c0.69,0.34,1.5,0.51,2.41,0.51c0.99,0,1.86-0.26,2.61-0.77c0.74-0.51,1.24-1.14,1.47-1.88l0.24,0.06
		C294.08,309.93,293.9,310.43,293.62,310.98z M290.21,300.82c-0.51-0.53-1.19-0.8-2.04-0.8c-0.56,0-1.06,0.16-1.5,0.5
		c-0.45,0.33-0.83,0.72-1.16,1.16c-0.33,0.44-0.58,0.89-0.76,1.34c-0.18,0.45-0.29,0.8-0.33,1.04c0.46,0,0.86,0,1.22,0
		c0.36,0,0.71,0,1.06-0.01c0.35-0.01,0.71-0.02,1.09-0.03c0.38-0.01,0.79-0.02,1.25-0.02c0.3,0,0.57-0.01,0.83-0.03
		s0.49-0.07,0.68-0.15c0.14-0.16,0.24-0.31,0.31-0.45c0.07-0.14,0.1-0.35,0.1-0.63C290.97,301.99,290.72,301.35,290.21,300.82z"/>
	<path class="st1" d="M304.74,311.7c-0.31,0.57-0.72,1.04-1.24,1.4c-0.52,0.36-1.11,0.62-1.77,0.78c-0.67,0.16-1.36,0.24-2.1,0.24
		c-0.87,0-1.7-0.08-2.47-0.24c-0.77-0.16-1.49-0.39-2.14-0.69v-3.98h0.24c0.16,0.48,0.36,0.99,0.59,1.52
		c0.24,0.53,0.52,1.03,0.86,1.48c0.34,0.45,0.74,0.82,1.22,1.12c0.47,0.29,1.04,0.44,1.69,0.44c0.95,0,1.7-0.28,2.27-0.83
		c0.56-0.55,0.85-1.4,0.85-2.55c0-0.62-0.19-1.14-0.58-1.55c-0.39-0.41-0.91-0.69-1.59-0.83c-0.53-0.1-1.05-0.21-1.54-0.33
		c-0.49-0.12-0.94-0.25-1.33-0.39c-0.75-0.26-1.36-0.71-1.83-1.36c-0.46-0.64-0.7-1.42-0.7-2.32c0-0.62,0.13-1.19,0.39-1.69
		c0.26-0.5,0.61-0.93,1.04-1.3c0.44-0.36,0.94-0.64,1.52-0.83c0.58-0.19,1.19-0.29,1.85-0.29c0.83,0,1.57,0.08,2.2,0.23
		s1.24,0.34,1.82,0.56l0.36,3.74l-0.24,0.06c-0.28-0.6-0.56-1.16-0.83-1.67c-0.28-0.51-0.58-0.95-0.92-1.33s-0.72-0.66-1.15-0.86
		c-0.43-0.2-0.92-0.3-1.47-0.3c-0.34,0-0.67,0.06-1,0.18c-0.33,0.12-0.62,0.3-0.86,0.53c-0.25,0.23-0.45,0.52-0.61,0.87
		c-0.16,0.35-0.24,0.76-0.24,1.22c0,0.74,0.21,1.28,0.63,1.6s0.94,0.56,1.58,0.72c0.44,0.1,0.91,0.21,1.43,0.32
		c0.52,0.11,0.96,0.22,1.34,0.32c0.89,0.22,1.65,0.68,2.28,1.39c0.63,0.7,0.94,1.57,0.94,2.59
		C305.21,310.45,305.05,311.13,304.74,311.7z"/>
	<path class="st1" d="M334.15,307.53c-0.6,1.37-1.4,2.55-2.43,3.55c-1.02,1.01-2.21,1.78-3.57,2.32c-1.36,0.54-2.8,0.81-4.33,0.81
		c-1.51,0-2.94-0.27-4.29-0.8c-1.35-0.53-2.53-1.29-3.54-2.26s-1.81-2.14-2.4-3.5c-0.59-1.36-0.88-2.85-0.88-4.48
		c0-1.73,0.31-3.28,0.92-4.66c0.62-1.38,1.44-2.54,2.49-3.5c1.04-0.95,2.26-1.69,3.66-2.2c1.4-0.51,2.87-0.77,4.42-0.77
		c1.69,0,3.2,0.3,4.54,0.91c1.34,0.6,2.48,1.41,3.41,2.43c0.93,1.02,1.65,2.19,2.14,3.51c0.5,1.33,0.74,2.71,0.74,4.16
		C335.04,304.67,334.74,306.16,334.15,307.53z M330.89,299.39c-0.31-1.25-0.77-2.38-1.4-3.39c-0.63-1.01-1.41-1.84-2.34-2.47
		c-0.93-0.63-2.04-0.95-3.31-0.95c-1.29,0-2.41,0.32-3.35,0.95c-0.94,0.63-1.72,1.45-2.32,2.46c-0.61,1.01-1.05,2.14-1.34,3.42
		c-0.29,1.28-0.43,2.57-0.43,3.87c0,1.37,0.16,2.68,0.48,3.95c0.32,1.27,0.79,2.38,1.41,3.35c0.63,0.96,1.41,1.74,2.35,2.32
		c0.94,0.58,2.04,0.87,3.29,0.87c1.25,0,2.34-0.32,3.26-0.96c0.92-0.64,1.69-1.47,2.31-2.49c0.62-1.02,1.08-2.15,1.38-3.42
		c0.31-1.27,0.46-2.53,0.46-3.8C331.35,301.87,331.2,300.63,330.89,299.39z"/>
	<path class="st1" d="M346.45,302.21c-0.26,0.29-0.56,0.44-0.89,0.44c-0.32,0-0.57-0.05-0.76-0.17c-0.19-0.11-0.35-0.24-0.49-0.38
		c-0.14-0.14-0.29-0.27-0.45-0.38c-0.16-0.11-0.38-0.17-0.66-0.17c-0.24,0-0.47,0.09-0.7,0.26c-0.23,0.17-0.44,0.39-0.64,0.65
		c-0.2,0.26-0.38,0.56-0.54,0.89c-0.16,0.33-0.3,0.65-0.42,0.95v8.68c0.06,0.18,0.19,0.32,0.39,0.42c0.2,0.1,0.42,0.17,0.67,0.21
		c0.25,0.04,0.51,0.07,0.77,0.08c0.27,0.01,0.5,0.03,0.7,0.08v0.3h-6.67v-0.3c0.46-0.04,0.85-0.13,1.18-0.27
		c0.33-0.14,0.49-0.37,0.49-0.69v-10.19c0-0.16-0.02-0.28-0.04-0.36c-0.03-0.08-0.11-0.17-0.25-0.27c-0.18-0.1-0.39-0.23-0.63-0.38
		s-0.48-0.28-0.71-0.38v-0.18l3.9-1.54h0.18l-0.06,4.19h0.06c0.1-0.24,0.26-0.59,0.48-1.05c0.22-0.46,0.5-0.93,0.83-1.4
		s0.74-0.88,1.22-1.22s1.02-0.51,1.64-0.51c0.5,0,0.92,0.15,1.27,0.45c0.35,0.3,0.52,0.68,0.52,1.15
		C346.83,301.55,346.7,301.92,346.45,302.21z"/>
	<path class="st1" d="M362.15,301.96c-0.21,0.23-0.46,0.35-0.76,0.35c-0.12,0-0.3-0.05-0.54-0.15c-0.24-0.1-0.5-0.22-0.79-0.36
		c-0.29-0.14-0.58-0.3-0.88-0.47c-0.3-0.17-0.57-0.33-0.8-0.47l-0.12,0.12c0.3,0.46,0.55,0.9,0.76,1.3c0.21,0.4,0.31,0.92,0.31,1.57
		c0,1.59-0.55,2.78-1.64,3.57c-1.09,0.79-2.6,1.19-4.53,1.19c-0.28,0-0.56-0.02-0.85-0.06c-0.29-0.04-0.63-0.06-1.03-0.06
		c-0.64,0.04-1.14,0.19-1.52,0.45c-0.38,0.26-0.57,0.59-0.57,1c0,0.32,0.1,0.59,0.3,0.8c0.2,0.21,0.45,0.38,0.74,0.5
		c0.3,0.12,0.63,0.2,0.98,0.24c0.36,0.04,0.7,0.06,1.04,0.06h4.76c0.69,0,1.32,0.11,1.88,0.33c0.55,0.22,1.03,0.52,1.43,0.9
		c0.4,0.38,0.7,0.82,0.91,1.31c0.21,0.49,0.31,1.04,0.31,1.64c0,0.78-0.19,1.53-0.58,2.24c-0.39,0.71-0.93,1.34-1.62,1.88
		c-0.7,0.54-1.51,0.97-2.46,1.28c-0.94,0.31-1.98,0.47-3.11,0.47c-2.16,0-3.85-0.33-5.05-0.98c-1.2-0.65-1.8-1.55-1.8-2.7
		c0-0.42,0.11-0.8,0.34-1.15s0.52-0.67,0.86-0.98c0.35-0.31,0.73-0.6,1.16-0.88s0.85-0.54,1.27-0.8v-0.06
		c-1.01-0.12-1.79-0.41-2.34-0.88c-0.55-0.46-0.82-1.07-0.82-1.84c0-0.38,0.09-0.74,0.27-1.08c0.18-0.34,0.43-0.65,0.74-0.94
		c0.32-0.28,0.69-0.52,1.12-0.71c0.43-0.19,0.89-0.32,1.39-0.38v-0.09c-0.87-0.34-1.55-0.84-2.04-1.51s-0.73-1.51-0.73-2.53
		c0-0.64,0.14-1.25,0.43-1.81c0.29-0.56,0.69-1.05,1.21-1.46c0.52-0.41,1.13-0.74,1.83-0.98c0.7-0.24,1.47-0.36,2.31-0.36
		c0.75,0,1.42,0.07,2.01,0.21c0.58,0.14,1.2,0.38,1.83,0.72c0.24,0.08,0.44,0.13,0.61,0.15c0.17,0.02,0.37,0.03,0.61,0.03
		c0.24,0,0.45-0.03,0.64-0.11c0.19-0.07,0.36-0.15,0.52-0.24c0.16-0.09,0.33-0.17,0.51-0.24c0.18-0.07,0.39-0.1,0.63-0.1
		c0.34,0,0.62,0.12,0.83,0.36c0.22,0.24,0.33,0.53,0.33,0.88C362.47,301.47,362.36,301.74,362.15,301.96z M359.22,315.45
		c-0.24-0.42-0.53-0.71-0.86-0.87c-0.44-0.22-0.98-0.38-1.64-0.47c-0.66-0.09-1.56-0.13-2.71-0.13c-0.42,0-0.84,0.02-1.28,0.06
		c-0.44,0.04-0.79,0.08-1.07,0.12c-0.93,0.24-1.58,0.62-1.94,1.15c-0.36,0.52-0.54,1.09-0.54,1.72c0,0.64,0.17,1.2,0.52,1.69
		c0.35,0.48,0.78,0.89,1.3,1.22c0.52,0.33,1.07,0.58,1.65,0.74c0.59,0.16,1.13,0.24,1.62,0.24c0.6,0,1.11-0.03,1.53-0.09
		c0.43-0.06,0.81-0.15,1.15-0.27c0.69-0.28,1.31-0.73,1.83-1.36c0.53-0.62,0.79-1.37,0.79-2.23
		C359.58,316.38,359.46,315.88,359.22,315.45z M356.75,302.37c-0.14-0.46-0.34-0.87-0.61-1.22c-0.27-0.35-0.61-0.63-1.01-0.84
		c-0.41-0.21-0.88-0.32-1.41-0.32c-0.5,0-0.94,0.12-1.34,0.35c-0.4,0.23-0.73,0.54-1,0.93c-0.27,0.39-0.47,0.84-0.61,1.34
		c-0.14,0.5-0.21,1.02-0.21,1.54c0,1.21,0.3,2.18,0.91,2.91c0.61,0.73,1.34,1.1,2.22,1.1c0.54,0,1.01-0.12,1.42-0.36
		c0.41-0.24,0.75-0.56,1.03-0.96c0.28-0.4,0.49-0.86,0.63-1.37c0.14-0.51,0.21-1.05,0.21-1.61
		C356.96,303.33,356.89,302.84,356.75,302.37z"/>
	<path class="st1" d="M375.75,312.23c-0.16,0.36-0.37,0.69-0.63,0.98c-0.26,0.29-0.56,0.51-0.91,0.66
		c-0.35,0.15-0.73,0.23-1.15,0.23c-0.67,0-1.28-0.2-1.8-0.6c-0.53-0.4-0.79-1.1-0.79-2.11l-0.06-0.03
		c-0.16,0.26-0.37,0.55-0.64,0.87c-0.27,0.32-0.59,0.62-0.95,0.91c-0.37,0.28-0.77,0.51-1.22,0.68c-0.45,0.17-0.94,0.26-1.47,0.26
		c-0.32,0-0.64-0.04-0.97-0.14c-0.33-0.09-0.63-0.25-0.89-0.48c-0.27-0.23-0.49-0.53-0.66-0.89c-0.17-0.36-0.25-0.8-0.25-1.32
		c0-0.56,0.22-1.1,0.67-1.63c0.45-0.52,1-1,1.65-1.42c0.66-0.42,1.24-0.78,1.74-1.08c0.51-0.3,0.95-0.56,1.32-0.77
		c0.38-0.21,0.71-0.39,1-0.54c0.29-0.15,0.53-0.29,0.73-0.41v-3.11c0-0.04-0.04-0.14-0.1-0.29s-0.19-0.31-0.36-0.47
		c-0.17-0.16-0.4-0.31-0.7-0.44c-0.3-0.13-0.68-0.2-1.16-0.2c-0.32,0-0.63,0.05-0.94,0.16c-0.31,0.11-0.58,0.25-0.82,0.42
		c-0.24,0.17-0.43,0.34-0.57,0.51c-0.14,0.17-0.21,0.32-0.21,0.44v1.36c0,0.28-0.14,0.53-0.43,0.75c-0.29,0.22-0.6,0.33-0.94,0.33
		c-0.32,0-0.59-0.12-0.82-0.35c-0.23-0.23-0.34-0.5-0.34-0.8c0-0.24,0.06-0.46,0.18-0.66c0.12-0.2,0.27-0.38,0.45-0.54
		c0.18-0.16,0.37-0.3,0.58-0.42c0.21-0.12,0.39-0.23,0.55-0.33c0.52-0.3,1.04-0.59,1.58-0.87c0.54-0.28,1.05-0.52,1.53-0.72
		s0.93-0.36,1.34-0.48c0.41-0.12,0.74-0.18,1-0.18c0.52,0,1,0.14,1.46,0.41c0.46,0.27,0.78,0.61,0.98,1.01
		c0.08,0.14,0.13,0.39,0.15,0.74c0.02,0.35,0.03,0.7,0.03,1.04c0,0.72-0.01,1.38-0.02,1.96c-0.01,0.58-0.01,1.15-0.01,1.69
		c0,0.54-0.01,1.1-0.02,1.67c-0.01,0.57-0.02,1.2-0.02,1.88c0,0.9,0.15,1.5,0.46,1.79s0.66,0.44,1.06,0.44
		c0.46,0,0.79-0.1,1.01-0.29s0.37-0.44,0.45-0.74h0.18C375.99,311.5,375.91,311.87,375.75,312.23z M370.48,305.87
		c-0.36,0.26-0.8,0.54-1.34,0.83c-0.54,0.29-1.06,0.61-1.56,0.95c-0.51,0.34-0.94,0.72-1.31,1.13c-0.37,0.41-0.55,0.88-0.55,1.4
		c0,0.52,0.18,1,0.54,1.42c0.36,0.42,0.82,0.63,1.4,0.63c0.52,0,0.97-0.06,1.37-0.18c0.4-0.12,0.76-0.35,1.1-0.69
		c0.24-0.22,0.36-0.5,0.36-0.84V305.87z"/>
	<path class="st1" d="M384.68,314.07v-0.33c0.54-0.04,0.96-0.11,1.28-0.2c0.32-0.09,0.48-0.3,0.48-0.62v-7.6
		c0-1.16-0.22-2.1-0.66-2.82c-0.44-0.71-1.17-1.07-2.2-1.07c-0.66,0-1.2,0.14-1.64,0.42c-0.44,0.28-0.92,0.69-1.46,1.24v9.89
		c0.04,0.2,0.11,0.35,0.21,0.44c0.1,0.09,0.22,0.15,0.36,0.2c0.14,0.04,0.3,0.07,0.48,0.08c0.18,0.01,0.37,0.03,0.56,0.08v0.3h-5.75
		v-0.3c0.46-0.04,0.85-0.13,1.18-0.27c0.33-0.14,0.49-0.37,0.49-0.69v-10.37c0-0.16-0.02-0.28-0.05-0.36
		c-0.03-0.08-0.11-0.17-0.25-0.27c-0.18-0.1-0.39-0.22-0.63-0.35c-0.24-0.13-0.48-0.25-0.71-0.35v-0.18l3.9-1.42h0.18v3.26
		l0.06,0.03c0.22-0.34,0.49-0.71,0.82-1.1c0.33-0.39,0.7-0.75,1.11-1.07c0.42-0.32,0.87-0.59,1.36-0.8
		c0.49-0.21,1.01-0.32,1.54-0.32c1.15,0,2.03,0.43,2.64,1.3c0.61,0.86,0.92,1.98,0.92,3.35v8.86c0,0.14,0.06,0.26,0.19,0.36
		c0.13,0.1,0.28,0.18,0.46,0.23c0.18,0.05,0.37,0.09,0.58,0.12c0.21,0.03,0.4,0.05,0.58,0.08v0.27H384.68z"/>
	<path class="st1" d="M391.56,314.07v-0.3c0.24-0.02,0.48-0.04,0.71-0.08s0.45-0.08,0.64-0.15c0.19-0.07,0.35-0.17,0.48-0.29
		c0.13-0.12,0.19-0.27,0.19-0.45v-10.34c0-0.16-0.02-0.3-0.05-0.42c-0.03-0.12-0.11-0.23-0.25-0.33c-0.18-0.12-0.39-0.24-0.64-0.36
		c-0.25-0.12-0.51-0.23-0.79-0.33v-0.18l4.02-1.33h0.18v13.47c0.04,0.2,0.12,0.35,0.25,0.44c0.13,0.09,0.28,0.15,0.46,0.2
		c0.18,0.04,0.37,0.07,0.58,0.08c0.21,0.01,0.41,0.03,0.61,0.08v0.3H391.56z M395.83,295.91c-0.31,0.31-0.69,0.47-1.15,0.47
		c-0.44,0-0.81-0.16-1.13-0.48c-0.32-0.32-0.48-0.7-0.48-1.15c0-0.46,0.15-0.84,0.46-1.15s0.69-0.45,1.15-0.45
		c0.46,0,0.84,0.15,1.15,0.45c0.31,0.3,0.46,0.68,0.46,1.15S396.14,295.6,395.83,295.91z"/>
	<path class="st1" d="M411.21,314.16h-0.27c-0.04-0.06-0.14-0.09-0.3-0.09c-0.16,0-0.34-0.01-0.55-0.03
		c-0.21-0.02-0.43-0.03-0.67-0.03c-0.24,0-0.48,0-0.71,0c-0.97,0-1.84,0-2.59,0c-0.75,0-1.48,0.01-2.19,0.02
		c-0.7,0.01-1.42,0.01-2.16,0.01c-0.71,0-1.54,0-2.47,0l-0.09-0.21l8.31-13.41h-4.02c-0.71,0-1.29,0.05-1.74,0.16
		c-0.45,0.11-0.81,0.29-1.1,0.54c-0.29,0.25-0.52,0.58-0.7,0.98c-0.18,0.4-0.37,0.9-0.57,1.48l-0.3-0.06l0.54-4.16l0.27-0.03
		c0.04,0.06,0.08,0.12,0.13,0.18c0.05,0.06,0.13,0.12,0.25,0.18c0.12,0.06,0.29,0.11,0.51,0.14s0.51,0.04,0.86,0.04
		c0.95,0,1.8,0,2.53,0c0.73,0,1.44,0,2.11,0s1.35,0,2.04-0.01c0.68-0.01,1.44-0.02,2.28-0.02l0.03,0.27l-8.4,13.39h4.5
		c0.79,0,1.45-0.11,1.96-0.33c0.52-0.22,0.94-0.51,1.27-0.88c0.33-0.36,0.59-0.78,0.79-1.27s0.38-0.97,0.54-1.48l0.3,0.03
		L411.21,314.16z"/>
	<path class="st1" d="M425.06,312.23c-0.16,0.36-0.37,0.69-0.63,0.98c-0.26,0.29-0.56,0.51-0.91,0.66
		c-0.35,0.15-0.73,0.23-1.15,0.23c-0.67,0-1.28-0.2-1.8-0.6c-0.53-0.4-0.79-1.1-0.79-2.11l-0.06-0.03
		c-0.16,0.26-0.37,0.55-0.64,0.87c-0.27,0.32-0.59,0.62-0.95,0.91c-0.37,0.28-0.77,0.51-1.22,0.68c-0.45,0.17-0.94,0.26-1.47,0.26
		c-0.32,0-0.64-0.04-0.97-0.14c-0.33-0.09-0.63-0.25-0.89-0.48c-0.27-0.23-0.49-0.53-0.66-0.89c-0.17-0.36-0.25-0.8-0.25-1.32
		c0-0.56,0.22-1.1,0.67-1.63c0.45-0.52,1-1,1.65-1.42c0.66-0.42,1.24-0.78,1.74-1.08c0.51-0.3,0.95-0.56,1.32-0.77
		c0.38-0.21,0.71-0.39,1-0.54c0.29-0.15,0.53-0.29,0.73-0.41v-3.11c0-0.04-0.04-0.14-0.1-0.29s-0.19-0.31-0.36-0.47
		c-0.17-0.16-0.4-0.31-0.7-0.44c-0.3-0.13-0.68-0.2-1.16-0.2c-0.32,0-0.63,0.05-0.94,0.16c-0.31,0.11-0.58,0.25-0.82,0.42
		c-0.24,0.17-0.43,0.34-0.57,0.51c-0.14,0.17-0.21,0.32-0.21,0.44v1.36c0,0.28-0.14,0.53-0.43,0.75c-0.29,0.22-0.6,0.33-0.94,0.33
		c-0.32,0-0.59-0.12-0.82-0.35c-0.23-0.23-0.34-0.5-0.34-0.8c0-0.24,0.06-0.46,0.18-0.66c0.12-0.2,0.27-0.38,0.45-0.54
		c0.18-0.16,0.37-0.3,0.58-0.42c0.21-0.12,0.39-0.23,0.55-0.33c0.52-0.3,1.04-0.59,1.58-0.87c0.54-0.28,1.05-0.52,1.53-0.72
		s0.93-0.36,1.34-0.48c0.41-0.12,0.74-0.18,1-0.18c0.52,0,1,0.14,1.46,0.41c0.46,0.27,0.78,0.61,0.98,1.01
		c0.08,0.14,0.13,0.39,0.15,0.74c0.02,0.35,0.03,0.7,0.03,1.04c0,0.72-0.01,1.38-0.02,1.96c-0.01,0.58-0.01,1.15-0.01,1.69
		c0,0.54-0.01,1.1-0.02,1.67c-0.01,0.57-0.02,1.2-0.02,1.88c0,0.9,0.15,1.5,0.46,1.79s0.66,0.44,1.06,0.44
		c0.46,0,0.79-0.1,1.01-0.29s0.37-0.44,0.45-0.74h0.18C425.31,311.5,425.22,311.87,425.06,312.23z M419.79,305.87
		c-0.36,0.26-0.8,0.54-1.34,0.83c-0.54,0.29-1.06,0.61-1.56,0.95c-0.51,0.34-0.94,0.72-1.31,1.13c-0.37,0.41-0.55,0.88-0.55,1.4
		c0,0.52,0.18,1,0.54,1.42c0.36,0.42,0.82,0.63,1.4,0.63c0.52,0,0.97-0.06,1.37-0.18c0.4-0.12,0.76-0.35,1.1-0.69
		c0.24-0.22,0.36-0.5,0.36-0.84V305.87z"/>
	<path class="st1" d="M434.32,301.65h-4.53v7.93c0,1.02,0.22,1.77,0.65,2.23c0.44,0.46,1,0.69,1.7,0.69c0.58,0,1.05-0.1,1.43-0.29
		c0.38-0.19,0.7-0.49,0.98-0.89l0.18,0.09c-0.12,0.3-0.28,0.62-0.49,0.95c-0.21,0.33-0.49,0.63-0.83,0.9
		c-0.35,0.27-0.75,0.48-1.22,0.63c-0.47,0.15-1.02,0.23-1.65,0.23c-0.42,0-0.82-0.07-1.2-0.2c-0.38-0.13-0.72-0.32-1.02-0.57
		c-0.29-0.25-0.53-0.53-0.72-0.84c-0.19-0.31-0.28-0.63-0.28-0.95c0-1.89,0.01-3.68,0.03-5.38c0.02-1.7,0.03-3.21,0.03-4.54h-2.17
		v-0.33l4.29-4.13h0.24v2.62h5.51L434.32,301.65z"/>
	<path class="st1" d="M435,314.07v-0.3c0.24-0.02,0.48-0.04,0.71-0.08c0.24-0.03,0.45-0.08,0.64-0.15c0.19-0.07,0.35-0.17,0.48-0.29
		c0.13-0.12,0.19-0.27,0.19-0.45v-10.34c0-0.16-0.02-0.3-0.05-0.42c-0.03-0.12-0.11-0.23-0.25-0.33c-0.18-0.12-0.39-0.24-0.64-0.36
		c-0.25-0.12-0.51-0.23-0.79-0.33v-0.18l4.02-1.33h0.18v13.47c0.04,0.2,0.12,0.35,0.25,0.44c0.13,0.09,0.28,0.15,0.46,0.2
		c0.18,0.04,0.37,0.07,0.58,0.08c0.21,0.01,0.41,0.03,0.61,0.08v0.3H435z M439.28,295.91c-0.31,0.31-0.69,0.47-1.15,0.47
		c-0.44,0-0.81-0.16-1.13-0.48c-0.32-0.32-0.48-0.7-0.48-1.15c0-0.46,0.15-0.84,0.46-1.15s0.69-0.45,1.15-0.45
		c0.46,0,0.84,0.15,1.15,0.45c0.31,0.3,0.46,0.68,0.46,1.15S439.58,295.6,439.28,295.91z"/>
	<path class="st1" d="M456.11,309.59c-0.38,0.92-0.88,1.71-1.52,2.4c-0.64,0.68-1.37,1.22-2.22,1.6c-0.84,0.38-1.73,0.57-2.66,0.57
		c-0.77,0-1.58-0.14-2.41-0.42c-0.83-0.28-1.6-0.73-2.31-1.34s-1.28-1.4-1.73-2.35c-0.45-0.95-0.67-2.07-0.67-3.36
		c0-0.92,0.17-1.82,0.52-2.68c0.35-0.86,0.83-1.63,1.46-2.29c0.63-0.66,1.38-1.2,2.26-1.6c0.88-0.4,1.86-0.6,2.93-0.6
		c0.79,0,1.6,0.15,2.41,0.45c0.81,0.3,1.55,0.75,2.22,1.34c0.66,0.59,1.21,1.33,1.64,2.23c0.43,0.89,0.64,1.94,0.64,3.15
		C456.68,307.71,456.49,308.68,456.11,309.59z M453.69,304.45c-0.15-0.79-0.39-1.51-0.73-2.17s-0.78-1.21-1.34-1.64
		c-0.56-0.43-1.24-0.65-2.05-0.65c-0.66,0-1.24,0.2-1.76,0.6c-0.52,0.4-0.96,0.93-1.33,1.58c-0.37,0.65-0.65,1.39-0.83,2.2
		c-0.19,0.81-0.28,1.64-0.28,2.49c0,0.92,0.08,1.8,0.24,2.62c0.16,0.82,0.42,1.55,0.77,2.19c0.36,0.63,0.81,1.14,1.37,1.51
		c0.56,0.37,1.22,0.56,2,0.56c0.77,0,1.42-0.24,1.95-0.71c0.53-0.47,0.95-1.06,1.28-1.78c0.33-0.71,0.57-1.48,0.71-2.31
		c0.15-0.82,0.22-1.59,0.22-2.29C453.91,305.97,453.84,305.24,453.69,304.45z"/>
	<path class="st1" d="M466.42,314.07v-0.33c0.54-0.04,0.96-0.11,1.28-0.2c0.32-0.09,0.48-0.3,0.48-0.62v-7.6
		c0-1.16-0.22-2.1-0.66-2.82c-0.44-0.71-1.17-1.07-2.2-1.07c-0.66,0-1.2,0.14-1.64,0.42c-0.44,0.28-0.92,0.69-1.46,1.24v9.89
		c0.04,0.2,0.11,0.35,0.21,0.44c0.1,0.09,0.22,0.15,0.36,0.2c0.14,0.04,0.3,0.07,0.48,0.08c0.18,0.01,0.37,0.03,0.56,0.08v0.3h-5.75
		v-0.3c0.46-0.04,0.85-0.13,1.18-0.27c0.33-0.14,0.49-0.37,0.49-0.69v-10.37c0-0.16-0.02-0.28-0.05-0.36
		c-0.03-0.08-0.11-0.17-0.25-0.27c-0.18-0.1-0.39-0.22-0.63-0.35c-0.24-0.13-0.48-0.25-0.71-0.35v-0.18l3.9-1.42h0.18v3.26
		l0.06,0.03c0.22-0.34,0.49-0.71,0.82-1.1c0.33-0.39,0.7-0.75,1.11-1.07c0.42-0.32,0.87-0.59,1.36-0.8
		c0.49-0.21,1.01-0.32,1.54-0.32c1.15,0,2.03,0.43,2.64,1.3c0.61,0.86,0.92,1.98,0.92,3.35v8.86c0,0.14,0.06,0.26,0.19,0.36
		c0.13,0.1,0.28,0.18,0.46,0.23c0.18,0.05,0.37,0.09,0.58,0.12c0.21,0.03,0.4,0.05,0.58,0.08v0.27H466.42z"/>
</g>
<rect x="113.14" y="268.18" class="st2" width="284.67" height="1.51"/>
<g>
	<path class="st3" d="M196.31,38.27v8.49h-0.34v-4.59c0-2.19-0.47-3.39-2.58-3.39h-7.79v26.53c0,2.14,0.38,2.61,2.54,2.61h0.85v0.34
		h-9.49v-0.34h0.8c2.16,0,2.54-0.47,2.54-2.61V38.79h-7.75c-2.16,0-2.58,1.2-2.58,3.39v4.59h-0.34v-8.49H196.31z"/>
	<path class="st3" d="M268.94,41.27v24.05c0,2.14,0.38,2.61,2.54,2.61h0.85v0.34h-9.53v-0.34h0.85c2.16,0,2.54-0.47,2.54-2.61V53.28
		h-18.46v12.05c0,2.14,0.38,2.61,2.54,2.61h0.85v0.34h-9.49v-0.34h0.8c2.16,0,2.54-0.47,2.54-2.61V41.27c0-2.19-0.38-2.61-2.54-2.61
		h-0.8v-0.39h9.49v0.39h-0.85c-2.16,0-2.54,0.43-2.54,2.61V52.8h18.46V41.27c0-2.19-0.38-2.61-2.54-2.61h-0.85v-0.39h9.53v0.39
		h-0.85C269.33,38.66,268.94,39.09,268.94,41.27z"/>
	<path class="st3" d="M338.78,59.79v8.49h-22.4v-0.34h0.85c2.16,0,2.54-0.47,2.54-2.61V41.27c0-2.19-0.38-2.61-2.54-2.61h-0.85
		v-0.39h21.64v8.49h-0.34v-4.59c0-2.19-0.42-3.39-2.58-3.39h-12.58V52.8h8.55c2.16,0,2.58-1.37,2.58-3.56v-0.86h0.38v9.26h-0.38
		v-0.82c0-2.19-0.42-3.56-2.58-3.56h-8.55v14.49h13.34c2.12,0,2.54-1.2,2.54-3.39v-4.59H338.78z"/>
</g>
</svg>
